<mxfile host="app.diagrams.net" modified="2024-02-20T15:58:20.939Z" agent="Mozilla/5.0 (Windows NT 10.0; Win64; x64) AppleWebKit/537.36 (KHTML, like Gecko) Chrome/121.0.0.0 Safari/537.36" etag="EGVULiWEsKRd09kf5hP4" version="23.1.5" type="github">
  <diagram name="Page-1" id="YQ3UiAFa2FJOTCWodV5u">
    <mxGraphModel dx="1235" dy="614" grid="1" gridSize="10" guides="1" tooltips="1" connect="1" arrows="1" fold="1" page="1" pageScale="1" pageWidth="827" pageHeight="1169" math="0" shadow="0">
      <root>
        <mxCell id="0" />
        <mxCell id="1" parent="0" />
        <mxCell id="QVReD4pQJGgZ_GsCaPXj-4" value="Server Management" style="swimlane;whiteSpace=wrap;html=1;" vertex="1" parent="1">
          <mxGeometry x="401" y="90" width="200" height="620" as="geometry" />
        </mxCell>
        <mxCell id="QVReD4pQJGgZ_GsCaPXj-5" value="Server Manipulation" style="swimlane;whiteSpace=wrap;html=1;" vertex="1" parent="QVReD4pQJGgZ_GsCaPXj-4">
          <mxGeometry x="20" y="250" width="160" height="100" as="geometry" />
        </mxCell>
        <mxCell id="QVReD4pQJGgZ_GsCaPXj-6" value="Changing Server" style="ellipse;whiteSpace=wrap;html=1;align=center;" vertex="1" parent="QVReD4pQJGgZ_GsCaPXj-5">
          <mxGeometry x="20" y="64" width="120" height="30" as="geometry" />
        </mxCell>
        <mxCell id="QVReD4pQJGgZ_GsCaPXj-7" value="&lt;font style=&quot;font-size: 11px;&quot;&gt;Creating New Server&lt;/font&gt;" style="ellipse;whiteSpace=wrap;html=1;align=center;" vertex="1" parent="QVReD4pQJGgZ_GsCaPXj-5">
          <mxGeometry x="20" y="29" width="120" height="30" as="geometry" />
        </mxCell>
        <mxCell id="QVReD4pQJGgZ_GsCaPXj-8" value="Manage Members" style="ellipse;whiteSpace=wrap;html=1;" vertex="1" parent="QVReD4pQJGgZ_GsCaPXj-4">
          <mxGeometry x="25" y="440" width="150" height="35" as="geometry" />
        </mxCell>
        <mxCell id="QVReD4pQJGgZ_GsCaPXj-9" value="Search" style="ellipse;whiteSpace=wrap;html=1;" vertex="1" parent="QVReD4pQJGgZ_GsCaPXj-4">
          <mxGeometry x="25" y="485" width="150" height="35" as="geometry" />
        </mxCell>
        <mxCell id="QVReD4pQJGgZ_GsCaPXj-10" value="Invite People" style="ellipse;whiteSpace=wrap;html=1;" vertex="1" parent="QVReD4pQJGgZ_GsCaPXj-4">
          <mxGeometry x="25" y="531" width="150" height="35" as="geometry" />
        </mxCell>
        <mxCell id="QVReD4pQJGgZ_GsCaPXj-11" value="Server Settings" style="swimlane;whiteSpace=wrap;html=1;" vertex="1" parent="QVReD4pQJGgZ_GsCaPXj-4">
          <mxGeometry x="20" y="360" width="160" height="70" as="geometry" />
        </mxCell>
        <mxCell id="QVReD4pQJGgZ_GsCaPXj-12" value="Change Properties" style="ellipse;whiteSpace=wrap;html=1;align=center;" vertex="1" parent="QVReD4pQJGgZ_GsCaPXj-11">
          <mxGeometry x="20" y="31" width="120" height="30" as="geometry" />
        </mxCell>
        <mxCell id="QVReD4pQJGgZ_GsCaPXj-13" value="&lt;font style=&quot;font-size: 11px;&quot;&gt;Channel Manipulation&lt;/font&gt;" style="swimlane;whiteSpace=wrap;html=1;" vertex="1" parent="1">
          <mxGeometry x="421" y="120" width="160" height="210" as="geometry" />
        </mxCell>
        <mxCell id="QVReD4pQJGgZ_GsCaPXj-14" value="Create Channel" style="swimlane;whiteSpace=wrap;html=1;" vertex="1" parent="QVReD4pQJGgZ_GsCaPXj-13">
          <mxGeometry x="20" y="31" width="120" height="130" as="geometry" />
        </mxCell>
        <mxCell id="QVReD4pQJGgZ_GsCaPXj-15" value="Text" style="ellipse;whiteSpace=wrap;html=1;" vertex="1" parent="QVReD4pQJGgZ_GsCaPXj-14">
          <mxGeometry x="17" y="30" width="85" height="25" as="geometry" />
        </mxCell>
        <mxCell id="QVReD4pQJGgZ_GsCaPXj-16" value="Audio" style="ellipse;whiteSpace=wrap;html=1;" vertex="1" parent="QVReD4pQJGgZ_GsCaPXj-14">
          <mxGeometry x="17" y="64" width="85" height="25" as="geometry" />
        </mxCell>
        <mxCell id="QVReD4pQJGgZ_GsCaPXj-17" value="Video" style="ellipse;whiteSpace=wrap;html=1;" vertex="1" parent="QVReD4pQJGgZ_GsCaPXj-14">
          <mxGeometry x="17" y="99" width="85" height="25" as="geometry" />
        </mxCell>
        <mxCell id="QVReD4pQJGgZ_GsCaPXj-18" value="Change Channel" style="ellipse;whiteSpace=wrap;html=1;align=center;" vertex="1" parent="QVReD4pQJGgZ_GsCaPXj-13">
          <mxGeometry x="20" y="170" width="120" height="30" as="geometry" />
        </mxCell>
        <mxCell id="QVReD4pQJGgZ_GsCaPXj-19" value="Actor" style="shape=umlActor;verticalLabelPosition=bottom;verticalAlign=top;html=1;" vertex="1" parent="1">
          <mxGeometry x="227" y="370" width="30" height="60" as="geometry" />
        </mxCell>
        <mxCell id="QVReD4pQJGgZ_GsCaPXj-20" value="Delete Server" style="ellipse;whiteSpace=wrap;html=1;" vertex="1" parent="1">
          <mxGeometry x="426" y="666" width="150" height="35" as="geometry" />
        </mxCell>
        <mxCell id="QVReD4pQJGgZ_GsCaPXj-21" value="" style="curved=1;endArrow=classic;html=1;rounded=0;entryX=0;entryY=0.5;entryDx=0;entryDy=0;" edge="1" parent="1" target="QVReD4pQJGgZ_GsCaPXj-15">
          <mxGeometry width="50" height="50" relative="1" as="geometry">
            <mxPoint x="241" y="360" as="sourcePoint" />
            <mxPoint x="381" y="160" as="targetPoint" />
            <Array as="points">
              <mxPoint x="251" y="270" />
              <mxPoint x="341" y="190" />
            </Array>
          </mxGeometry>
        </mxCell>
        <mxCell id="QVReD4pQJGgZ_GsCaPXj-22" value="" style="curved=1;endArrow=classic;html=1;rounded=0;entryX=0;entryY=0.5;entryDx=0;entryDy=0;" edge="1" parent="1" target="QVReD4pQJGgZ_GsCaPXj-16">
          <mxGeometry width="50" height="50" relative="1" as="geometry">
            <mxPoint x="251" y="360" as="sourcePoint" />
            <mxPoint x="374" y="270" as="targetPoint" />
            <Array as="points">
              <mxPoint x="321" y="210" />
            </Array>
          </mxGeometry>
        </mxCell>
        <mxCell id="QVReD4pQJGgZ_GsCaPXj-23" value="" style="curved=1;endArrow=classic;html=1;rounded=0;entryX=0;entryY=0.5;entryDx=0;entryDy=0;" edge="1" parent="1" target="QVReD4pQJGgZ_GsCaPXj-17">
          <mxGeometry width="50" height="50" relative="1" as="geometry">
            <mxPoint x="261" y="360" as="sourcePoint" />
            <mxPoint x="381" y="270" as="targetPoint" />
            <Array as="points">
              <mxPoint x="311" y="300" />
              <mxPoint x="361" y="270" />
            </Array>
          </mxGeometry>
        </mxCell>
        <mxCell id="QVReD4pQJGgZ_GsCaPXj-24" value="" style="curved=1;endArrow=classic;html=1;rounded=0;entryX=0;entryY=0.5;entryDx=0;entryDy=0;" edge="1" parent="1" target="QVReD4pQJGgZ_GsCaPXj-18">
          <mxGeometry width="50" height="50" relative="1" as="geometry">
            <mxPoint x="261" y="370" as="sourcePoint" />
            <mxPoint x="371" y="310" as="targetPoint" />
            <Array as="points">
              <mxPoint x="301" y="340" />
              <mxPoint x="371" y="305" />
            </Array>
          </mxGeometry>
        </mxCell>
        <mxCell id="QVReD4pQJGgZ_GsCaPXj-25" value="" style="endArrow=classic;html=1;rounded=0;entryX=0;entryY=0.5;entryDx=0;entryDy=0;" edge="1" parent="1" target="QVReD4pQJGgZ_GsCaPXj-7">
          <mxGeometry width="50" height="50" relative="1" as="geometry">
            <mxPoint x="261" y="380" as="sourcePoint" />
            <mxPoint x="241" y="380" as="targetPoint" />
          </mxGeometry>
        </mxCell>
        <mxCell id="QVReD4pQJGgZ_GsCaPXj-26" value="" style="endArrow=classic;html=1;rounded=0;entryX=0;entryY=0.5;entryDx=0;entryDy=0;" edge="1" parent="1" target="QVReD4pQJGgZ_GsCaPXj-6">
          <mxGeometry width="50" height="50" relative="1" as="geometry">
            <mxPoint x="261" y="390" as="sourcePoint" />
            <mxPoint x="241" y="380" as="targetPoint" />
          </mxGeometry>
        </mxCell>
        <mxCell id="QVReD4pQJGgZ_GsCaPXj-27" value="" style="curved=1;endArrow=classic;html=1;rounded=0;entryX=0;entryY=0.5;entryDx=0;entryDy=0;" edge="1" parent="1" target="QVReD4pQJGgZ_GsCaPXj-20">
          <mxGeometry width="50" height="50" relative="1" as="geometry">
            <mxPoint x="251" y="450" as="sourcePoint" />
            <mxPoint x="241" y="520" as="targetPoint" />
            <Array as="points">
              <mxPoint x="261" y="570" />
              <mxPoint x="351" y="680" />
            </Array>
          </mxGeometry>
        </mxCell>
        <mxCell id="QVReD4pQJGgZ_GsCaPXj-28" value="" style="curved=1;endArrow=classic;html=1;rounded=0;entryX=0;entryY=0.5;entryDx=0;entryDy=0;" edge="1" parent="1" target="QVReD4pQJGgZ_GsCaPXj-10">
          <mxGeometry width="50" height="50" relative="1" as="geometry">
            <mxPoint x="261" y="450" as="sourcePoint" />
            <mxPoint x="151" y="710" as="targetPoint" />
            <Array as="points">
              <mxPoint x="281" y="560" />
              <mxPoint x="320" y="610" />
              <mxPoint x="361" y="640" />
            </Array>
          </mxGeometry>
        </mxCell>
        <mxCell id="QVReD4pQJGgZ_GsCaPXj-29" value="" style="curved=1;endArrow=classic;html=1;rounded=0;entryX=0;entryY=0.5;entryDx=0;entryDy=0;" edge="1" parent="1" target="QVReD4pQJGgZ_GsCaPXj-9">
          <mxGeometry width="50" height="50" relative="1" as="geometry">
            <mxPoint x="261" y="430" as="sourcePoint" />
            <mxPoint x="211" y="570" as="targetPoint" />
            <Array as="points">
              <mxPoint x="301" y="540" />
              <mxPoint x="341" y="593" />
            </Array>
          </mxGeometry>
        </mxCell>
        <mxCell id="QVReD4pQJGgZ_GsCaPXj-30" value="" style="curved=1;endArrow=classic;html=1;rounded=0;entryX=0;entryY=0.5;entryDx=0;entryDy=0;" edge="1" parent="1" target="QVReD4pQJGgZ_GsCaPXj-8">
          <mxGeometry width="50" height="50" relative="1" as="geometry">
            <mxPoint x="261" y="410" as="sourcePoint" />
            <mxPoint x="171" y="430" as="targetPoint" />
            <Array as="points">
              <mxPoint x="351" y="560" />
            </Array>
          </mxGeometry>
        </mxCell>
        <mxCell id="QVReD4pQJGgZ_GsCaPXj-31" value="" style="curved=1;endArrow=classic;html=1;rounded=0;entryX=0;entryY=0.5;entryDx=0;entryDy=0;" edge="1" parent="1" target="QVReD4pQJGgZ_GsCaPXj-12">
          <mxGeometry width="50" height="50" relative="1" as="geometry">
            <mxPoint x="261" y="400" as="sourcePoint" />
            <mxPoint x="241" y="380" as="targetPoint" />
            <Array as="points">
              <mxPoint x="341" y="480" />
              <mxPoint x="391" y="500" />
            </Array>
          </mxGeometry>
        </mxCell>
      </root>
    </mxGraphModel>
  </diagram>
</mxfile>
